<svg xmlns="http://www.w3.org/2000/svg" xmlns:xlink="http://www.w3.org/1999/xlink" width="1280" zoomAndPan="magnify" viewBox="0 0 960 599.999999" height="800" preserveAspectRatio="xMidYMid meet" version="1.0"><defs><clipPath id="bde5f9b239"><path d="M 189.023438 9.023438 L 764.273438 9.023438 L 764.273438 584.273438 L 189.023438 584.273438 Z M 189.023438 9.023438 " clip-rule="nonzero"/></clipPath></defs><rect x="-96" width="1152" fill="#ffffff" y="-60" height="719.999999" fill-opacity="1"/><rect x="-96" width="1152" fill="#000000" y="-60" height="719.999999" fill-opacity="1"/><g clip-path="url(#bde5f9b239)"><path fill="#75c9bc" d="M 764.144531 296.539062 C 764.144531 455.382812 635.382812 584.144531 476.539062 584.144531 C 317.695312 584.144531 188.9375 455.382812 188.9375 296.539062 C 188.929688 137.695312 317.695312 8.9375 476.539062 8.9375 C 635.382812 8.929688 764.144531 137.695312 764.144531 296.539062 " fill-opacity="1" fill-rule="nonzero"/></g><path fill="#ffffff" d="M 476.539062 443.871094 C 403.714844 443.871094 338.441406 404.660156 296.519531 371.753906 C 251.304688 336.265625 223.582031 301.339844 222.421875 299.875 C 220.882812 297.917969 220.882812 295.164062 222.421875 293.203125 C 223.582031 291.742188 251.304688 256.8125 296.519531 221.324219 C 338.441406 188.417969 403.714844 149.207031 476.539062 149.207031 C 549.367188 149.207031 614.636719 188.417969 656.5625 221.324219 C 701.777344 256.8125 729.496094 291.742188 730.65625 293.203125 C 732.207031 295.164062 732.207031 297.917969 730.65625 299.875 C 729.496094 301.339844 701.777344 336.265625 656.5625 371.753906 C 614.636719 404.660156 549.367188 443.871094 476.539062 443.871094 " fill-opacity="1" fill-rule="nonzero"/><path fill="#040505" d="M 476.539062 143.828125 C 443.546875 143.828125 409.351562 151.597656 374.898438 166.941406 C 347.628906 179.078125 320.148438 195.953125 293.203125 217.105469 C 247.496094 252.980469 219.371094 288.382812 218.195312 289.867188 C 215.117188 293.785156 215.117188 299.292969 218.195312 303.210938 C 219.371094 304.695312 247.496094 340.121094 293.203125 375.996094 C 320.148438 397.128906 347.628906 414.023438 374.898438 426.136719 C 409.351562 441.480469 443.546875 449.25 476.539062 449.25 C 509.53125 449.25 543.726562 441.480469 578.183594 426.136719 C 605.449219 414.023438 632.929688 397.128906 659.898438 375.996094 C 705.605469 340.121094 733.710938 304.695312 734.875 303.210938 C 737.972656 299.292969 737.972656 293.785156 734.875 289.867188 C 733.710938 288.382812 705.605469 252.980469 659.898438 217.105469 C 632.929688 195.953125 605.449219 179.078125 578.183594 166.941406 C 543.726562 151.597656 509.53125 143.828125 476.539062 143.828125 Z M 476.539062 154.589844 C 614.550781 154.589844 726.4375 296.539062 726.4375 296.539062 C 726.4375 296.539062 614.550781 438.492188 476.539062 438.492188 C 338.527344 438.492188 226.640625 296.539062 226.640625 296.539062 C 226.648438 296.539062 338.527344 154.589844 476.539062 154.589844 " fill-opacity="1" fill-rule="nonzero"/><path fill="#75c9bc" d="M 598.992188 296.539062 C 598.992188 364.179688 544.179688 418.992188 476.539062 418.992188 C 408.898438 418.992188 354.085938 364.179688 354.085938 296.539062 C 354.085938 228.898438 408.898438 174.085938 476.539062 174.085938 C 544.179688 174.085938 598.992188 228.898438 598.992188 296.539062 " fill-opacity="1" fill-rule="nonzero"/><path stroke-linecap="round" transform="matrix(0.215208, 0, 0, -0.215208, 19.008281, 754.071204)" fill="none" stroke-linejoin="round" d="M 2694.99685 2126.003266 C 2694.99685 1811.69925 2440.300964 1557.003364 2125.996948 1557.003364 C 1811.692931 1557.003364 1556.997045 1811.69925 1556.997045 2126.003266 C 1556.997045 2440.307283 1811.692931 2695.003168 2125.996948 2695.003168 C 2440.300964 2695.003168 2694.99685 2440.307283 2694.99685 2126.003266 Z M 2694.99685 2126.003266 " stroke="#040505" stroke-width="50" stroke-opacity="1" stroke-miterlimit="10"/><path stroke-linecap="round" transform="matrix(0.215208, 0, 0, -0.215208, 19.008281, 754.071204)" fill="none" stroke-linejoin="round" d="M 2181.103612 2267.908371 L 2181.103612 2361.295653 L 2315.403416 2361.295653 L 2315.403416 2563.897953 " stroke="#040505" stroke-width="30" stroke-opacity="1" stroke-miterlimit="10"/><path stroke-linecap="round" transform="matrix(0.215208, 0, 0, -0.215208, 19.008281, 754.071204)" fill="none" stroke-linejoin="round" d="M 2057.803359 1686.801702 L 2057.803359 1780.406796 L 2125.906192 1780.406796 L 2125.906192 1968.397481 " stroke="#040505" stroke-width="30" stroke-opacity="1" stroke-miterlimit="10"/><path stroke-linecap="round" transform="matrix(0.215208, 0, 0, -0.215208, 19.008281, 754.071204)" fill="none" stroke-linejoin="round" d="M 2113.999087 2267.908371 L 2113.999087 2442.79398 L 2181.103612 2442.79398 L 2181.103612 2517.703467 " stroke="#040505" stroke-width="30" stroke-opacity="1" stroke-miterlimit="10"/><path stroke-linecap="round" transform="matrix(0.215208, 0, 0, -0.215208, 19.008281, 754.071204)" fill="none" stroke-linejoin="round" d="M 2274.5998 2232.495624 L 2409.008511 2232.495624 L 2409.008511 2389.992502 " stroke="#040505" stroke-width="30" stroke-opacity="1" stroke-miterlimit="10"/><path stroke-linecap="round" transform="matrix(0.215208, 0, 0, -0.215208, 19.008281, 754.071204)" fill="none" stroke-linejoin="round" d="M 2432.096678 1859.49103 L 2432.096678 1993.808986 L 2274.5998 1993.808986 " stroke="#040505" stroke-width="30" stroke-opacity="1" stroke-miterlimit="10"/><path stroke-linecap="round" transform="matrix(0.215208, 0, 0, -0.215208, 19.008281, 754.071204)" fill="none" stroke-linejoin="round" d="M 2274.5998 2153.792562 L 2480.505596 2153.792562 " stroke="#040505" stroke-width="30" stroke-opacity="1" stroke-miterlimit="10"/><path stroke-linecap="round" transform="matrix(0.215208, 0, 0, -0.215208, 19.008281, 754.071204)" fill="none" stroke-linejoin="round" d="M 2057.803359 2267.908371 L 2057.803359 2361.295653 L 1923.503554 2361.295653 L 1923.503554 2563.897953 " stroke="#040505" stroke-width="30" stroke-opacity="1" stroke-miterlimit="10"/><path stroke-linecap="round" transform="matrix(0.215208, 0, 0, -0.215208, 19.008281, 754.071204)" fill="none" stroke-linejoin="round" d="M 1964.307171 2232.495624 L 1830.007366 2232.495624 L 1830.007366 2389.992502 " stroke="#040505" stroke-width="30" stroke-opacity="1" stroke-miterlimit="10"/><path stroke-linecap="round" transform="matrix(0.215208, 0, 0, -0.215208, 19.008281, 754.071204)" fill="none" stroke-linejoin="round" d="M 1806.792141 1859.49103 L 1806.792141 1993.808986 L 1964.307171 1993.808986 " stroke="#040505" stroke-width="30" stroke-opacity="1" stroke-miterlimit="10"/><path stroke-linecap="round" transform="matrix(0.215208, 0, 0, -0.215208, 19.008281, 754.071204)" fill="none" stroke-linejoin="round" d="M 1964.307171 2079.500212 L 1714.294262 2079.500212 " stroke="#040505" stroke-width="30" stroke-opacity="1" stroke-miterlimit="10"/><path fill="#ffffff" d="M 444.085938 333.683594 C 442.320312 333.683594 440.859375 332.242188 440.859375 330.457031 L 440.859375 266 C 440.859375 264.238281 442.320312 262.773438 444.085938 262.773438 L 508.519531 262.773438 C 510.304688 262.773438 511.746094 264.238281 511.746094 266 L 511.746094 330.457031 C 511.746094 332.242188 510.304688 333.683594 508.519531 333.683594 L 444.085938 333.683594 " fill-opacity="1" fill-rule="nonzero"/><path fill="#040505" d="M 508.519531 259.546875 L 444.085938 259.546875 C 440.535156 259.546875 437.628906 262.449219 437.628906 266 L 437.628906 330.457031 C 437.628906 334.027344 440.535156 336.914062 444.085938 336.914062 L 508.519531 336.914062 C 512.09375 336.914062 514.976562 334.027344 514.976562 330.457031 L 514.976562 266 C 514.976562 262.449219 512.09375 259.546875 508.519531 259.546875 Z M 508.519531 266 L 508.519531 330.457031 L 444.085938 330.457031 L 444.085938 266 L 508.519531 266 " fill-opacity="1" fill-rule="nonzero"/><path fill="#ffffff" d="M 457.363281 320.40625 C 455.578125 320.40625 454.136719 318.964844 454.136719 317.179688 L 454.136719 279.28125 C 454.136719 277.492188 455.578125 276.050781 457.363281 276.050781 L 495.261719 276.050781 C 497.050781 276.050781 498.492188 277.492188 498.492188 279.28125 L 498.492188 317.179688 C 498.492188 318.964844 497.050781 320.40625 495.261719 320.40625 L 457.363281 320.40625 " fill-opacity="1" fill-rule="nonzero"/><path fill="#040505" d="M 495.261719 272.824219 L 457.363281 272.824219 C 453.792969 272.824219 450.910156 275.707031 450.910156 279.28125 L 450.910156 317.179688 C 450.910156 320.75 453.792969 323.632812 457.363281 323.632812 L 495.261719 323.632812 C 498.835938 323.632812 501.71875 320.75 501.71875 317.179688 L 501.71875 279.28125 C 501.71875 275.707031 498.835938 272.824219 495.261719 272.824219 Z M 495.261719 279.28125 L 495.261719 317.179688 L 457.363281 317.179688 L 457.363281 279.28125 L 495.261719 279.28125 " fill-opacity="1" fill-rule="nonzero"/><path fill="#ffffff" d="M 441.4375 210.78125 C 441.4375 215.449219 437.628906 219.238281 432.960938 219.238281 C 428.289062 219.238281 424.480469 215.449219 424.480469 210.78125 C 424.480469 206.089844 428.289062 202.300781 432.960938 202.300781 C 437.628906 202.300781 441.4375 206.089844 441.4375 210.78125 " fill-opacity="1" fill-rule="nonzero"/><path stroke-linecap="round" transform="matrix(0.215208, 0, 0, -0.215208, 19.008281, 754.071204)" fill="none" stroke-linejoin="round" d="M 1962.891387 2524.491969 C 1962.891387 2502.801434 1945.194089 2485.194891 1923.503554 2485.194891 C 1901.794868 2485.194891 1884.09757 2502.801434 1884.09757 2524.491969 C 1884.09757 2546.29141 1901.794868 2563.897953 1923.503554 2563.897953 C 1945.194089 2563.897953 1962.891387 2546.29141 1962.891387 2524.491969 Z M 1962.891387 2524.491969 " stroke="#040505" stroke-width="30" stroke-opacity="1" stroke-miterlimit="10"/><path fill="#ffffff" d="M 496.875 210.78125 C 496.875 215.449219 493.089844 219.238281 488.398438 219.238281 C 483.726562 219.238281 479.941406 215.449219 479.941406 210.78125 C 479.941406 206.089844 483.726562 202.300781 488.398438 202.300781 C 493.089844 202.300781 496.875 206.089844 496.875 210.78125 " fill-opacity="1" fill-rule="nonzero"/><path stroke-linecap="round" transform="matrix(0.215208, 0, 0, -0.215208, 19.008281, 754.071204)" fill="none" stroke-linejoin="round" d="M 2220.491445 2524.491969 C 2220.491445 2502.801434 2202.903053 2485.194891 2181.103612 2485.194891 C 2159.394926 2485.194891 2141.806534 2502.801434 2141.806534 2524.491969 C 2141.806534 2546.29141 2159.394926 2563.897953 2181.103612 2563.897953 C 2202.903053 2563.897953 2220.491445 2546.29141 2220.491445 2524.491969 Z M 2220.491445 2524.491969 " stroke="#040505" stroke-width="30" stroke-opacity="1" stroke-miterlimit="10"/><path fill="#ffffff" d="M 525.777344 203.785156 C 525.777344 208.457031 521.96875 212.242188 517.300781 212.242188 C 512.628906 212.242188 508.84375 208.457031 508.84375 203.785156 C 508.84375 199.09375 512.628906 195.304688 517.300781 195.304688 C 521.96875 195.304688 525.777344 199.09375 525.777344 203.785156 " fill-opacity="1" fill-rule="nonzero"/><path stroke-linecap="round" transform="matrix(0.215208, 0, 0, -0.215208, 19.008281, 754.071204)" fill="none" stroke-linejoin="round" d="M 2354.791249 2557.000544 C 2354.791249 2535.291859 2337.093951 2517.703467 2315.403416 2517.703467 C 2293.694731 2517.703467 2276.106339 2535.291859 2276.106339 2557.000544 C 2276.106339 2578.799986 2293.694731 2596.406528 2315.403416 2596.406528 C 2337.093951 2596.406528 2354.791249 2578.799986 2354.791249 2557.000544 Z M 2354.791249 2557.000544 " stroke="#040505" stroke-width="30" stroke-opacity="1" stroke-miterlimit="10"/><path fill="#ffffff" d="M 545.902344 243.898438 C 545.902344 248.570312 542.113281 252.359375 537.445312 252.359375 C 532.753906 252.359375 528.964844 248.570312 528.964844 243.898438 C 528.964844 239.207031 532.75 235.421875 537.445312 235.421875 C 542.113281 235.421875 545.902344 239.207031 545.902344 243.898438 " fill-opacity="1" fill-rule="nonzero"/><path stroke-linecap="round" transform="matrix(0.215208, 0, 0, -0.215208, 19.008281, 754.071204)" fill="none" stroke-linejoin="round" d="M 2448.305588 2370.607154 C 2448.305588 2348.898468 2430.699045 2331.291926 2409.008511 2331.291926 C 2387.209069 2331.291926 2369.602527 2348.898468 2369.602527 2370.607154 C 2369.602527 2392.406595 2387.209069 2409.994987 2409.008511 2409.994987 C 2430.699045 2409.994987 2448.305588 2392.406595 2448.305588 2370.607154 Z M 2448.305588 2370.607154 " stroke="#040505" stroke-width="30" stroke-opacity="1" stroke-miterlimit="10"/><path fill="#ffffff" d="M 561.308594 290.558594 C 561.308594 295.226562 557.523438 299.015625 552.832031 299.015625 C 548.160156 299.015625 544.375 295.226562 544.375 290.558594 C 544.375 285.867188 548.160156 282.078125 552.832031 282.078125 C 557.523438 282.078125 561.308594 285.867188 561.308594 290.558594 " fill-opacity="1" fill-rule="nonzero"/><path stroke-linecap="round" transform="matrix(0.215208, 0, 0, -0.215208, 19.008281, 754.071204)" fill="none" stroke-linejoin="round" d="M 2519.893428 2153.792562 C 2519.893428 2132.102027 2502.305037 2114.495485 2480.505596 2114.495485 C 2458.79691 2114.495485 2441.208518 2132.102027 2441.208518 2153.792562 C 2441.208518 2175.592003 2458.79691 2193.198546 2480.505596 2193.198546 C 2502.305037 2193.198546 2519.893428 2175.592003 2519.893428 2153.792562 Z M 2519.893428 2153.792562 " stroke="#040505" stroke-width="30" stroke-opacity="1" stroke-miterlimit="10"/><path fill="#ffffff" d="M 550.871094 351.308594 C 550.871094 355.980469 547.085938 359.769531 542.414062 359.769531 C 537.746094 359.769531 533.9375 355.980469 533.9375 351.308594 C 533.9375 346.617188 537.746094 342.832031 542.414062 342.832031 C 547.085938 342.832031 550.871094 346.617188 550.871094 351.308594 " fill-opacity="1" fill-rule="nonzero"/><path stroke-linecap="round" transform="matrix(0.215208, 0, 0, -0.215208, 19.008281, 754.071204)" fill="none" stroke-linejoin="round" d="M 2471.393756 1871.507042 C 2471.393756 1849.798356 2453.805364 1832.191813 2432.096678 1832.191813 C 2410.406143 1832.191813 2392.708845 1849.798356 2392.708845 1871.507042 C 2392.708845 1893.306483 2410.406143 1910.894875 2432.096678 1910.894875 C 2453.805364 1910.894875 2471.393756 1893.306483 2471.393756 1871.507042 Z M 2471.393756 1871.507042 " stroke="#040505" stroke-width="30" stroke-opacity="1" stroke-miterlimit="10"/><path fill="#ffffff" d="M 470.320312 389.292969 C 470.320312 393.984375 466.53125 397.773438 461.863281 397.773438 C 457.191406 397.773438 453.382812 393.984375 453.382812 389.292969 C 453.382812 384.625 457.191406 380.835938 461.863281 380.835938 C 466.53125 380.835938 470.320312 384.625 470.320312 389.292969 " fill-opacity="1" fill-rule="nonzero"/><path stroke-linecap="round" transform="matrix(0.215208, 0, 0, -0.215208, 19.008281, 754.071204)" fill="none" stroke-linejoin="round" d="M 2097.100436 1695.005988 C 2097.100436 1673.206547 2079.493893 1655.600004 2057.803359 1655.600004 C 2036.094673 1655.600004 2018.397375 1673.206547 2018.397375 1695.005988 C 2018.397375 1716.696523 2036.094673 1734.303065 2057.803359 1734.303065 C 2079.493893 1734.303065 2097.100436 1716.696523 2097.100436 1695.005988 Z M 2097.100436 1695.005988 " stroke="#040505" stroke-width="30" stroke-opacity="1" stroke-miterlimit="10"/><path fill="#ffffff" d="M 416.324219 351.308594 C 416.324219 355.980469 412.535156 359.769531 407.84375 359.769531 C 403.175781 359.769531 399.386719 355.980469 399.386719 351.308594 C 399.386719 346.617188 403.175781 342.832031 407.84375 342.832031 C 412.535156 342.832031 416.324219 346.617188 416.324219 351.308594 " fill-opacity="1" fill-rule="nonzero"/><path stroke-linecap="round" transform="matrix(0.215208, 0, 0, -0.215208, 19.008281, 754.071204)" fill="none" stroke-linejoin="round" d="M 1846.198125 1871.507042 C 1846.198125 1849.798356 1828.591582 1832.191813 1806.792141 1832.191813 C 1785.101606 1832.191813 1767.495063 1849.798356 1767.495063 1871.507042 C 1767.495063 1893.306483 1785.101606 1910.894875 1806.792141 1910.894875 C 1828.591582 1910.894875 1846.198125 1893.306483 1846.198125 1871.507042 Z M 1846.198125 1871.507042 " stroke="#040505" stroke-width="30" stroke-opacity="1" stroke-miterlimit="10"/><path fill="#ffffff" d="M 397.429688 306.546875 C 397.429688 311.21875 393.640625 315.003906 388.949219 315.003906 C 384.28125 315.003906 380.492188 311.21875 380.492188 306.546875 C 380.492188 301.855469 384.28125 298.066406 388.949219 298.066406 C 393.640625 298.066406 397.429688 301.855469 397.429688 306.546875 " fill-opacity="1" fill-rule="nonzero"/><path stroke-linecap="round" transform="matrix(0.215208, 0, 0, -0.215208, 19.008281, 754.071204)" fill="none" stroke-linejoin="round" d="M 1758.401375 2079.500212 C 1758.401375 2057.791526 1740.794832 2040.203134 1718.995391 2040.203134 C 1697.304856 2040.203134 1679.698313 2057.791526 1679.698313 2079.500212 C 1679.698313 2101.299653 1697.304856 2118.906196 1718.995391 2118.906196 C 1740.794832 2118.906196 1758.401375 2101.299653 1758.401375 2079.500212 Z M 1758.401375 2079.500212 " stroke="#040505" stroke-width="30" stroke-opacity="1" stroke-miterlimit="10"/><path fill="#ffffff" d="M 421.296875 239.121094 C 421.296875 243.8125 417.507812 247.601562 412.839844 247.601562 C 408.148438 247.601562 404.359375 243.8125 404.359375 239.121094 C 404.359375 234.453125 408.148438 230.664062 412.839844 230.664062 C 417.507812 230.664062 421.296875 234.453125 421.296875 239.121094 " fill-opacity="1" fill-rule="nonzero"/><path stroke-linecap="round" transform="matrix(0.215208, 0, 0, -0.215208, 19.008281, 754.071204)" fill="none" stroke-linejoin="round" d="M 1869.304444 2392.805919 C 1869.304444 2371.006478 1851.697901 2353.399935 1830.007366 2353.399935 C 1808.207925 2353.399935 1790.601382 2371.006478 1790.601382 2392.805919 C 1790.601382 2414.496454 1808.207925 2432.102997 1830.007366 2432.102997 C 1851.697901 2432.102997 1869.304444 2414.496454 1869.304444 2392.805919 Z M 1869.304444 2392.805919 " stroke="#040505" stroke-width="30" stroke-opacity="1" stroke-miterlimit="10"/><path stroke-linecap="round" transform="matrix(0.215208, 0, 0, -0.215208, 19.008281, 754.071204)" fill="none" stroke-linejoin="round" d="M 2125.996948 2785.595184 L 2125.996948 2716.80261 " stroke="#040505" stroke-width="50" stroke-opacity="1" stroke-miterlimit="10"/><path stroke-linecap="round" transform="matrix(0.215208, 0, 0, -0.215208, 19.008281, 754.071204)" fill="none" stroke-linejoin="round" d="M 2125.996948 1535.203923 L 2125.996948 1466.393197 " stroke="#040505" stroke-width="50" stroke-opacity="1" stroke-miterlimit="10"/><path stroke-linecap="round" transform="matrix(0.215208, 0, 0, -0.215208, 19.008281, 754.071204)" fill="none" stroke-linejoin="round" d="M 2785.607017 2126.003266 L 2716.796291 2126.003266 " stroke="#040505" stroke-width="50" stroke-opacity="1" stroke-miterlimit="10"/><path stroke-linecap="round" transform="matrix(0.215208, 0, 0, -0.215208, 19.008281, 754.071204)" fill="none" stroke-linejoin="round" d="M 1535.197604 2126.003266 L 1466.40503 2126.003266 " stroke="#040505" stroke-width="50" stroke-opacity="1" stroke-miterlimit="10"/><path stroke-linecap="round" transform="matrix(0.215208, 0, 0, -0.215208, 19.008281, 754.071204)" fill="none" stroke-linejoin="round" d="M 1659.605073 2592.395141 L 1708.195501 2543.804713 " stroke="#040505" stroke-width="50" stroke-opacity="1" stroke-miterlimit="10"/><path stroke-linecap="round" transform="matrix(0.215208, 0, 0, -0.215208, 19.008281, 754.071204)" fill="none" stroke-linejoin="round" d="M 2543.798394 1708.201819 L 2592.406974 1659.59324 " stroke="#040505" stroke-width="50" stroke-opacity="1" stroke-miterlimit="10"/><path stroke-linecap="round" transform="matrix(0.215208, 0, 0, -0.215208, 19.008281, 754.071204)" fill="none" stroke-linejoin="round" d="M 2592.406974 2592.395141 L 2543.798394 2543.804713 " stroke="#040505" stroke-width="50" stroke-opacity="1" stroke-miterlimit="10"/><path stroke-linecap="round" transform="matrix(0.215208, 0, 0, -0.215208, 19.008281, 754.071204)" fill="none" stroke-linejoin="round" d="M 1708.195501 1708.201819 L 1659.605073 1659.59324 " stroke="#040505" stroke-width="50" stroke-opacity="1" stroke-miterlimit="10"/><path stroke-linecap="round" transform="matrix(0.215208, 0, 0, -0.215208, 19.008281, 754.071204)" fill="none" stroke-linejoin="round" d="M 1517.100982 2379.700843 L 1580.70235 2353.291029 " stroke="#040505" stroke-width="50" stroke-opacity="1" stroke-miterlimit="10"/><path stroke-linecap="round" transform="matrix(0.215208, 0, 0, -0.215208, 19.008281, 754.071204)" fill="none" stroke-linejoin="round" d="M 2671.400452 1898.697353 L 2734.892913 1872.196783 " stroke="#040505" stroke-width="50" stroke-opacity="1" stroke-miterlimit="10"/><path stroke-linecap="round" transform="matrix(0.215208, 0, 0, -0.215208, 19.008281, 754.071204)" fill="none" stroke-linejoin="round" d="M 2379.803431 2734.899231 L 2353.302861 2671.297864 " stroke="#040505" stroke-width="50" stroke-opacity="1" stroke-miterlimit="10"/><path stroke-linecap="round" transform="matrix(0.215208, 0, 0, -0.215208, 19.008281, 754.071204)" fill="none" stroke-linejoin="round" d="M 1898.691034 1580.708668 L 1872.299371 1517.107301 " stroke="#040505" stroke-width="50" stroke-opacity="1" stroke-miterlimit="10"/><path stroke-linecap="round" transform="matrix(0.215208, 0, 0, -0.215208, 19.008281, 754.071204)" fill="none" stroke-linejoin="round" d="M 1516.102673 1874.901293 L 1579.70404 1901.093295 " stroke="#040505" stroke-width="50" stroke-opacity="1" stroke-miterlimit="10"/><path stroke-linecap="round" transform="matrix(0.215208, 0, 0, -0.215208, 19.008281, 754.071204)" fill="none" stroke-linejoin="round" d="M 2672.308006 2350.895087 L 2736.000129 2377.105239 " stroke="#040505" stroke-width="50" stroke-opacity="1" stroke-miterlimit="10"/><path stroke-linecap="round" transform="matrix(0.215208, 0, 0, -0.215208, 19.008281, 754.071204)" fill="none" stroke-linejoin="round" d="M 1874.894975 2735.897541 L 1901.105127 2672.296173 " stroke="#040505" stroke-width="50" stroke-opacity="1" stroke-miterlimit="10"/><path stroke-linecap="round" transform="matrix(0.215208, 0, 0, -0.215208, 19.008281, 754.071204)" fill="none" stroke-linejoin="round" d="M 2350.906919 1579.692208 L 2377.098921 1516.000085 " stroke="#040505" stroke-width="50" stroke-opacity="1" stroke-miterlimit="10"/></svg>